# xmcd
#
# Track frame offsets:
# 150
# 16153
# 31479
# 44183
# 57244
# 72823
# 90343
# 103799
# 116880
# 134711
# 146630
# 158381
# 174701
# 187755
# 201835
# 217038
# 230711
# 244149
# 255557
# 266533
#
# Disc length: 3707 seconds
#
#
# Revision: 0
# Processed by: cddbd v1.5.2PL0 Copyright (c) Steve Scherf et al.
# Submitted via: FreeRIP 2.945 
#
DISCID=270e7914
DTITLE=Di Paullo and Paulinho - As 20 Mais
DYEAR=2006
DGENRE=Sertanejo
TTITLE0=To Indo Embora
TTITLE1=To Por Ai
TTITLE2=Eu Achei Bao
TTITLE3=Saudade Boa De Briga
TTITLE4=Amor De Primavera
TTITLE5=Onde Anda Voce
TTITLE6=Nao De4sista
TTITLE7=Lambada Do Amor
TTITLE8=Sonhei Com Voce
TTITLE9=Cai Sereno
TTITLE10=Quatro Tipo De Mulher
TTITLE11=Fruto Proibido
TTITLE12=Foi Bom Te Encontrar
TTITLE13=Coracao De Cowboy
TTITLE14=El Condor Passa - No Ceu Dos Bracos Teus
TTITLE15=Never On Sunday
TTITLE16=Caso Passado
TTITLE17=No Alto Da Colina
TTITLE18=Presente De Natal
TTITLE19=Louca Paixao
EXTD=
EXTT0=
EXTT1=
EXTT2=
EXTT3=
EXTT4=
EXTT5=
EXTT6=
EXTT7=
EXTT8=
EXTT9=
EXTT10=
EXTT11=
EXTT12=
EXTT13=
EXTT14=
EXTT15=
EXTT16=
EXTT17=
EXTT18=
EXTT19=
PLAYORDER=
